<!-- Created with Inkscape (http://www.inkscape.org/) -->
<svg id="svg3039" xmlns:inkscape="http://www.inkscape.org/namespaces/inkscape" xmlns:rdf="http://www.w3.org/1999/02/22-rdf-syntax-ns#" xmlns="http://www.w3.org/2000/svg" sodipodi:docname="trac.svg" xml:space="preserve" viewBox="0 0 41.094 41.133" version="1.1" xmlns:cc="http://creativecommons.org/ns#" xmlns:dc="http://purl.org/dc/elements/1.1/" inkscape:version="0.48.0 r9654" xmlns:sodipodi="http://sodipodi.sourceforge.net/DTD/sodipodi-0.dtd"><metadata id="metadata3045"><rdf:RDF><cc:Work rdf:about=""><dc:format>image/svg+xml</dc:format><dc:type rdf:resource="http://purl.org/dc/dcmitype/StillImage"/><dc:title/></cc:Work></rdf:RDF></metadata><defs id="defs3043"/><sodipodi:namedview id="namedview3041" bordercolor="#666666" inkscape:pageshadow="2" guidetolerance="10" pagecolor="#ffffff" gridtolerance="10" inkscape:window-maximized="1" inkscape:zoom="7.4393273" objecttolerance="10" borderopacity="1" inkscape:current-layer="g3047" inkscape:cx="10.782311" inkscape:cy="11.384146" inkscape:window-y="1" inkscape:window-x="0" inkscape:window-width="1600" showgrid="false" inkscape:pageopacity="0" inkscape:window-height="871"/><g id="g3047" inkscape:label="icon_template" inkscape:groupmode="layer"><path id="path4050" inkscape:connector-curvature="0" fill="#000" d="m0.43361,15.862v-15.159h15.159,15.159v15.159,15.159h-15.159-15.159v-15.159zm13.865,13.444c0.46279-0.14299,0.83662-0.36542,1.7914-1.0659,0.90296-0.66244,1.4995-1.008,2.1408-1.24,0.73935-0.26753,1.3501-0.359,2.814-0.42143,1.4981-0.06389,1.8147-0.10908,2.3047-0.32899,0.43761-0.19639,0.72092-0.49024,0.93763-0.97249,0.52511-1.1685,0.47704-2.1761-0.1292-2.7084-0.27854-0.24456-0.40568-0.30865-1.5143-0.76326-1.516-0.623-2.028-0.997-3.253-2.379-0.28101-0.31696-0.54271-0.54713-0.74003-0.65085-0.28014-0.14726-0.35889-0.16016-0.95664-0.15656-1.0901,0.0065-2.1029,0.33865-2.646,0.86764-0.52591,0.51222-0.75719,1.1571-0.87626,2.4435-0.13252,1.4317-0.23663,1.746-0.76171,2.2999-0.57576,0.60735-0.84144,0.98537-1.172,1.6675-0.6482,1.3378-0.66366,2.4726-0.04169,3.0606,0.43644,0.4126,1.3824,0.56854,2.1013,0.34641zm-4.3153-3.796c0.34721-0.09642,0.61492-0.37595,0.86918-0.90756,0.43389-0.90718,0.72149-2.5818,0.53858-3.136-0.109-0.328-1.4024-2.023-2.0303-2.658-0.60882-0.61638-0.94793-0.87-1.4032-1.0494-0.77104-0.30392-1.4231,0.0087-1.8746,0.89879-0.65233,1.2859-0.70405,3.323-0.11394,4.4875,0.16173,0.31916,1.2057,1.3468,1.703,1.6763,0.41071,0.27217,1.0152,0.56046,1.3938,0.6647,0.35042,0.09648,0.63078,0.10399,0.91686,0.02454zm15.366-5.088c0.742-0.3214,1.3276-1.3875,1.6785-3.0557,0.10331-0.49117,0.13647-0.84494,0.13828-1.4751l0.0024-0.82902-0.38123-0.62176c-0.85122-1.3884-1.3748-1.8358-2.1484-1.8356-1.4639,0.000237-2.9829,2.5204-2.8732,4.7668,0.0806,1.6502,0.75617,2.7642,1.9091,3.148,0.37118,0.12356,1.2874,0.07024,1.6746-0.09746zm-19.704-2.933c0.3874-0.20033,0.4541-0.79366,0.17298-1.5386-0.25058-0.66403-1.2788-1.5284-1.6941-1.4242-0.24189,0.06071-0.34197,0.38108-0.34316,1.0985-0.0015,0.91618,0.17469,1.3192,0.7152,1.636,0.53844,0.31555,0.85767,0.37897,1.1491,0.22828zm6.9045-0.21425c0.42075-0.15742,0.81374-0.51263,0.94372-0.853,0.14684-0.3845,0.0939-1.2165-0.11667-1.8333-0.19742-0.57836-0.58502-1.4069-0.98559-2.1069-0.1648-0.28798-0.35262-0.71782-0.41738-0.95521-0.4-1.468-1.026-2.3288-2.0494-2.8173-0.39674-0.18944-0.51981-0.2204-0.87609-0.2204-0.9138,0-1.8323,0.7203-2.3918,1.8756-0.41354,0.85403-0.50221,1.2267-0.50476,2.1214-0.0025,0.88556,0.0848,1.1759,0.5607,1.8643,0.37078,0.53636,1.4129,1.5515,1.9845,1.9331,0.70026,0.46751,1.7238,0.93378,2.3647,1.0772,0.06514,0.01458,0.35059,0.0296,0.63435,0.03337,0.39439,0.0053,0.59551-0.02291,0.85382-0.11956zm6.0652-1.4493c0.26025-0.07729,0.39628-0.17204,0.71979-0.50138,0.33401-0.34003,0.46155-0.53402,0.78409-1.1926,0.86921-1.7749,1.1785-3.4002,0.87127-4.5778-0.14888-0.57056-0.40951-1.2167-0.70116-1.7382-0.26676-0.47702-1.0445-1.296-1.4301-1.5058-0.65878-0.35855-1.3273-0.40922-2.0623-0.15632-0.49416,0.17002-0.77852,0.35562-1.1638,0.75961-0.93104,0.97628-1.1529,2.6081-0.65809,4.8411,0.25606,1.1556,0.42829,1.5715,1.0022,2.4199,0.79564,1.1763,1.2164,1.5646,1.8261,1.6852,0.37219,0.07364,0.46353,0.06985,0.81199-0.03363zm6.1316-3.8751c0.34598-0.16748,0.71652-0.58328,0.76897-0.86287,0.0245-0.13057,0.01232-0.33687-0.02899-0.49133-0.106-0.397-0.515-1.4068-0.733-1.8116-0.167-0.3112-0.213-0.3553-0.366-0.3553-0.23106,0-0.38416,0.22868-0.58272,0.87044-0.34479,1.1144-0.36252,1.5597-0.08441,2.1199,0.18701,0.37675,0.47558,0.65137,0.68445,0.65137,0.05004,0,0.20381-0.05462,0.34171-0.12138zm-17.014-3.6691c0.33665-0.12596,0.56095-0.32413,0.71696-0.63346,0.26524-0.52588-0.06327-1.3653-0.82938-2.1192-0.53481-0.52633-0.82522-0.53449-1.069-0.03002-0.16713,0.34592-0.28027,0.94879-0.23712,1.2636,0.03682,0.26864,0.32244,1.0143,0.4815,1.2571,0.10242,0.15632,0.42484,0.38008,0.5482,0.38046,0.03949,0.000118,0.21444-0.05315,0.38879-0.11838zm9.8501-3.3226c0.26472-0.24869,0.40542-0.68712,0.40642-1.2664,0.000805-0.46919-0.01961-0.57475-0.17073-0.88252-0.096-0.196-0.356-0.5449-0.592-0.7938-0.46745-0.49368-0.84186-0.71086-1.0414-0.60408-0.40926,0.21903-0.75041,1.8779-0.50634,2.462,0.12752,0.30519,0.72368,0.90118,1.0976,1.0973,0.36677,0.19235,0.59216,0.18882,0.80658-0.01262z"/></g></svg>
