<?xml version="1.0" encoding="UTF-8" standalone="no"?>
<!-- Created with Inkscape (http://www.inkscape.org/) -->

<svg
   xmlns:dc="http://purl.org/dc/elements/1.1/"
   xmlns:cc="http://creativecommons.org/ns#"
   xmlns:rdf="http://www.w3.org/1999/02/22-rdf-syntax-ns#"
   xmlns:svg="http://www.w3.org/2000/svg"
   xmlns="http://www.w3.org/2000/svg"
   version="1.1"
   width="41.09375"
   height="41.132751"
   id="svg3039"
   xml:space="preserve"><metadata
     id="metadata3045"><rdf:RDF><cc:Work
         rdf:about=""><dc:format>image/svg+xml</dc:format><dc:type
           rdf:resource="http://purl.org/dc/dcmitype/StillImage" /><dc:title></dc:title></cc:Work></rdf:RDF></metadata><defs
     id="defs3043"><clipPath
       id="clipPath3055"><path
         d="m 0,32.906 l 32.875,0 L 32.875,0 L 0,0 l 0,32.906 z"
         id="path3057" /></clipPath><clipPath
       id="clipPath3071"><path
         d="m 0,32.906 l 32.875,0 L 32.875,0 L 0,0 l 0,32.906 z"
         id="path3073" /></clipPath></defs><g
     id="g3047"><path
       d="m 0.43360766,15.861649 l 0,-15.15919874 l 15.15919934,0 l 15.1592,0 l 0,15.15919874 l 0,15.1592 l -15.1592,0 l -15.15919934,0 l 0,-15.1592 z M 14.29863,29.305746 c 0.462791,-0.142994 0.836619,-0.365421 1.791395,-1.065879 c 0.90296,-0.662443 1.499467,-1.007957 2.140835,-1.240031 c 0.739349,-0.267528 1.350146,-0.359001 2.814011,-0.421429 c 1.498112,-0.06389 1.814739,-0.109084 2.304746,-0.328986 c 0.437606,-0.196386 0.720924,-0.490236 0.937633,-0.972488 c 0.525109,-1.168544 0.477043,-2.176149 -0.129201,-2.708438 c -0.278538,-0.24456 -0.405684,-0.308647 -1.514267,-0.763264 C 21.128643,21.18389 20.617368,20.81009 19.391627,19.427543 c -0.28101,-0.316959 -0.542713,-0.547128 -0.740026,-0.650854 c -0.280135,-0.147265 -0.358894,-0.160155 -0.956639,-0.156563 c -1.090097,0.0065 -2.1029,0.338651 -2.646037,0.867642 c -0.525914,0.512217 -0.757186,1.157131 -0.876258,2.443483 c -0.132524,1.431694 -0.236627,1.746021 -0.761706,2.299905 c -0.575763,0.607349 -0.841443,0.985367 -1.171984,1.667541 c -0.648199,1.337758 -0.663656,2.472643 -0.04169,3.060642 c 0.436438,0.412601 1.382406,0.568545 2.10134,0.346407 z M 9.9837447,25.510235 c 0.3472093,-0.09642 0.6149203,-0.375953 0.8691813,-0.907562 c 0.433892,-0.907177 0.721492,-2.581803 0.538582,-3.136025 C 11.2829,21.13756 9.9896467,19.443491 9.3617317,18.807785 c -0.608823,-0.616378 -0.947932,-0.869997 -1.403192,-1.049443 c -0.771037,-0.303915 -1.423077,0.0087 -1.874594,0.898789 c -0.652329,1.28594 -0.704049,3.322997 -0.113937,4.487528 c 0.161731,0.319159 1.205711,1.346764 1.703049,1.676335 c 0.410714,0.272168 1.015239,0.560458 1.393829,0.664698 c 0.350416,0.09648 0.630778,0.103989 0.916858,0.02454 z M 25.350324,20.42215 c 0.741997,-0.321395 1.327615,-1.387533 1.678487,-3.055746 c 0.103307,-0.491173 0.136469,-0.844944 0.138275,-1.475147 l 0.0024,-0.829019 l -0.381232,-0.621764 c -0.851215,-1.388365 -1.374821,-1.835753 -2.148358,-1.835637 c -1.463866,2.37e-4 -2.982938,2.520439 -2.873213,4.766811 c 0.0806,1.650198 0.756168,2.764177 1.909057,3.147965 c 0.371176,0.123563 1.287423,0.07024 1.674584,-0.09746 z M 5.6465207,17.489076 c 0.387396,-0.20033 0.454103,-0.793655 0.172983,-1.538603 c -0.250584,-0.664031 -1.278777,-1.528402 -1.694084,-1.424166 c -0.241892,0.06071 -0.341974,0.381077 -0.343162,1.09848 c -0.0015,0.916176 0.174688,1.319241 0.715204,1.636004 c 0.538438,0.315546 0.85767,0.378968 1.149059,0.228285 z m 6.9044573,-0.214247 c 0.420747,-0.157421 0.813738,-0.512632 0.943725,-0.852997 c 0.146842,-0.384498 0.0939,-1.216456 -0.116672,-1.833319 c -0.197424,-0.578356 -0.58502,-1.406929 -0.985586,-2.106905 c -0.164798,-0.287979 -0.35262,-0.717822 -0.417382,-0.955207 C 11.574599,10.058507 10.94863,9.1982143 9.9255717,8.7097083 c -0.396743,-0.189443 -0.519808,-0.220403 -0.876091,-0.220403 c -0.913803,0 -1.83232,0.720304 -2.391756,1.8756237 c -0.413545,0.854033 -0.502206,1.22666 -0.504764,2.12143 c -0.0025,0.885558 0.0848,1.175924 0.560703,1.864349 c 0.370785,0.536359 1.41289,1.55148 1.984471,1.933084 c 0.700258,0.467513 1.7238023,0.933785 2.3646773,1.077219 c 0.06514,0.01458 0.350593,0.0296 0.634347,0.03337 c 0.39439,0.0053 0.595509,-0.02291 0.853819,-0.119557 z m 6.065152,-1.449261 c 0.260254,-0.07729 0.396283,-0.172039 0.719793,-0.501375 c 0.334011,-0.340027 0.461548,-0.534017 0.784094,-1.192643 c 0.869206,-1.774884 1.178542,-3.400195 0.871266,-4.5778097 c -0.148876,-0.570561 -0.409511,-1.216686 -0.701158,-1.738199 c -0.266765,-0.47702 -1.044542,-1.296014 -1.430052,-1.505835 c -0.658776,-0.358551 -1.327277,-0.409223 -2.062339,-0.156324 c -0.494159,0.170015 -0.77852,0.355619 -1.163795,0.759614 c -0.931041,0.976281 -1.152873,2.608125 -0.658091,4.8410807 c 0.256062,1.155613 0.428291,1.571495 1.002161,2.419927 c 0.795644,1.176311 1.216357,1.564553 1.826132,1.685192 c 0.372194,0.07364 0.463526,0.06985 0.811989,-0.03363 z m 6.131577,-3.875096 c 0.345975,-0.167484 0.71652,-0.583276 0.768973,-0.862872 c 0.0245,-0.130571 0.01232,-0.336871 -0.02899,-0.491326 C 25.3817,10.199975 24.973314,9.1902033 24.755309,8.7853833 C 24.587751,8.4742423 24.54219,8.4300893 24.388686,8.4300893 c -0.231064,0 -0.384157,0.228682 -0.582722,0.870439 c -0.344794,1.1143597 -0.362525,1.5596577 -0.08441,2.1199487 c 0.187006,0.376748 0.475575,0.651372 0.684447,0.651372 c 0.05004,0 0.203808,-0.05462 0.341711,-0.121377 z M 7.7336007,8.2818793 c 0.336652,-0.125958 0.560947,-0.324128 0.716964,-0.633456 c 0.265236,-0.525875 -0.06327,-1.365278 -0.82938,-2.119245 c -0.534808,-0.526332 -0.825223,-0.534488 -1.068961,-0.03002 c -0.167133,0.345916 -0.280267,0.948786 -0.237121,1.263572 c 0.03682,0.268639 0.32244,1.014309 0.481505,1.257073 c 0.102423,0.156318 0.424839,0.380079 0.548203,0.380459 c 0.03949,1.18e-4 0.214444,-0.05315 0.38879,-0.118381 z m 9.8501013,-3.322641 c 0.264721,-0.248693 0.405423,-0.687118 0.406421,-1.266399 c 8.05e-4,-0.469194 -0.01961,-0.574754 -0.170727,-0.882517 C 17.723226,2.6144493 17.46286,2.2654803 17.22724,2.0166403 c -0.467454,-0.493681 -0.841857,-0.710864 -1.04138,-0.604082 c -0.409255,0.219027 -0.750412,1.877864 -0.506338,2.462016 c 0.127518,0.305192 0.72368,0.901184 1.097598,1.097282 c 0.366766,0.192347 0.592159,0.188821 0.806582,-0.01262 z"
       id="path4050"
       style="fill:#000000" /></g></svg>