<?xml version="1.0" encoding="utf-8"?>
<!-- Generator: Adobe Illustrator 14.0.0, SVG Export Plug-In . SVG Version: 6.00 Build 43363)  -->
<!DOCTYPE svg PUBLIC "-//W3C//DTD SVG 1.1//EN" "http://www.w3.org/Graphics/SVG/1.1/DTD/svg11.dtd">
<svg version="1.1" id="Layer_1" xmlns="http://www.w3.org/2000/svg" xmlns:xlink="http://www.w3.org/1999/xlink" x="0px" y="0px"
	 width="40px" height="40px" viewBox="0 0 40 40" enable-background="new 0 0 40 40" xml:space="preserve">
<path fill="#FFFFFF" d="M31.769,26.565L31.769,26.565c-0.206,0-0.423-0.018-0.65-0.055c-1.133-0.188-2.016-0.719-2.623-1.581
	c-1.26-1.785-0.815-4.35-0.796-4.458c0.284-1.754,1.504-5.098,4.068-5.098c1.093,0,2.048,0.388,2.761,1.122
	c0.724,0.744,1.121,1.778,1.091,2.836l-0.006,0.223C35.574,21.29,35.453,26.565,31.769,26.565L31.769,26.565z M31.768,16.875
	c-1.471,0-2.395,2.645-2.59,3.851c-0.006,0.032-0.353,2.077,0.546,3.344c0.373,0.526,0.909,0.841,1.639,0.961
	c0.143,0.023,0.277,0.035,0.405,0.035c1.989,0.001,2.292-3.164,2.347-5.543l0.005-0.231c0.019-0.646-0.23-1.3-0.666-1.749
	C33.028,17.105,32.446,16.875,31.768,16.875L31.768,16.875z"/>
<path fill="#FFFFFF" d="M23.971,21.798L23.971,21.798c-1.271,0-3.59-0.795-4.825-6.123c-0.521-2.247-0.312-4.058,0.622-5.383
	c1.156-1.64,2.992-1.87,3.069-1.878c0.138-0.025,0.326-0.042,0.521-0.042c2.189,0,4.567,1.971,4.756,5.271
	c0.396,6.118-3.091,8.029-3.749,8.126C24.288,21.781,24.151,21.798,23.971,21.798L23.971,21.798z M23.358,9.872
	c-0.105,0-0.208,0.008-0.306,0.025c-0.052,0.007-1.311,0.182-2.07,1.275c-0.668,0.96-0.793,2.361-0.376,4.163
	c1.068,4.604,2.845,4.962,3.364,4.962l0,0c0.078,0,0.138-0.007,0.172-0.012l0,0c-0.018,0,2.816-1.26,2.475-6.552
	C26.465,11.068,24.619,9.872,23.358,9.872L23.358,9.872z"/>
<path fill="#FFFFFF" d="M16.283,23.649C16.283,23.649,16.283,23.649,16.283,23.649c-1.313,0-2.911-0.646-4.748-1.921
	c-1.581-1.096-2.507-2.449-2.754-4.019c-0.412-2.623,1.266-4.852,1.337-4.945c1.029-1.244,2.101-1.5,2.822-1.5
	c2.201,0,4.298,2.372,4.675,5.288c0.205,1.112,0.569,1.973,0.891,2.733c0.482,1.138,0.937,2.214,0.122,3.276
	C18.458,22.819,17.793,23.649,16.283,23.649L16.283,23.649z M11.292,13.699c0.001,0-1.343,1.81-1.027,3.789
	c0.183,1.145,0.898,2.157,2.125,3.008c1.971,1.366,3.205,1.653,3.894,1.653l0,0c0.807,0,1.08-0.395,1.091-0.411
	c0.32-0.414,0.229-0.737-0.25-1.868c-0.334-0.79-0.75-1.774-0.991-3.086c-0.28-2.159-1.77-4.019-3.193-4.019
	C12.359,12.765,11.805,13.079,11.292,13.699L11.292,13.699L11.292,13.699z"/>
<path fill="#FFFFFF" d="M13.354,33.602C13.354,33.602,13.354,33.602,13.354,33.602c-0.778-0.001-1.687-0.284-2.776-0.867
	c-4.172-2.21-3.301-5.951-3.015-7.181l0.044-0.193c0.26-1.22,1.146-2.45,2.537-2.45c0.638,0,1.314,0.266,2.011,0.789
	c2.079,1.563,4.042,3.038,3.966,5.874C16.049,32.246,15.118,33.602,13.354,33.602L13.354,33.602z M10.144,24.41
	c-0.656,0-0.995,0.912-1.07,1.263l-0.05,0.221c-0.268,1.15-0.896,3.846,2.259,5.517c0.86,0.461,1.593,0.677,2.076,0.691
	c0.391,0,1.193-0.012,1.263-2.569c0.053-1.966-1.182-2.991-3.368-4.634C10.829,24.579,10.445,24.41,10.144,24.41L10.144,24.41z"/>
<path fill="#FFFFFF" d="M18.257,37.887c-1.064,0-1.983-0.465-2.519-1.275c-1.071-1.623-0.255-4.253,1.94-6.255
	c0.458-0.396,0.499-0.872,0.538-1.751c0.037-0.845,0.083-1.896,0.73-3.022c0.913-1.546,2.418-1.921,2.797-1.993
	c0.482-0.153,2.923-0.748,4.947,1.876c0.667,0.851,1.678,1.275,2.655,1.687c1.517,0.638,3.404,1.432,2.949,4.093
	c-0.583,3.205-2.722,3.272-4.609,3.333l-0.166,0.005c-1.876,0.058-3.497,0.108-5.938,1.978
	C20.521,37.412,19.336,37.887,18.257,37.887L18.257,37.887z M22.896,24.924c-0.423,0-0.705,0.099-0.708,0.1l-0.16,0.039
	c-0.04,0.007-1.141,0.186-1.785,1.276c-0.461,0.802-0.494,1.579-0.527,2.332c-0.041,0.93-0.087,1.984-1.041,2.808
	c-1.739,1.586-2.233,3.475-1.684,4.306c0.329,0.498,0.871,0.603,1.267,0.603c0.739,0,1.591-0.357,2.398-1.007
	c2.838-2.173,4.861-2.235,6.818-2.296l0.165-0.006c2.002-0.063,2.828-0.166,3.179-2.093c0.243-1.423-0.413-1.761-2.054-2.45
	c-1.1-0.463-2.346-0.986-3.257-2.148C24.572,25.177,23.571,24.924,22.896,24.924L22.896,24.924z"/>
<path fill="#FFFFFF" d="M22.244,8.313c-0.399,0-0.799-0.116-1.188-0.345c-1.361-0.802-1.752-2.509-1.436-3.782
	c0.077-0.304,0.314-1.061,0.866-1.57c0.585-0.543,1.416-0.657,2.119-0.291c1.329,0.693,2.021,2.765,1.728,4.085
	C24.079,7.567,23.259,8.313,22.244,8.313L22.244,8.313z M21.74,3.607c-0.095,0-0.18,0.06-0.233,0.111
	c-0.211,0.195-0.364,0.571-0.431,0.834c-0.178,0.711,0.021,1.699,0.741,2.123c0.155,0.091,0.299,0.138,0.427,0.138
	c0.432,0,0.588-0.555,0.625-0.726c0.161-0.725-0.291-2.085-0.957-2.432C21.85,3.624,21.792,3.607,21.74,3.607L21.74,3.607z"/>
<path fill="#FFFFFF" d="M11.306,11.246c-0.345,0-0.633-0.073-0.774-0.117c-0.254-0.093-2.112-0.861-2.264-3.698
	C8.212,6.383,8.569,5.774,8.879,5.448c0.362-0.382,0.855-0.592,1.388-0.592c1.157,0,2.559,1.061,3,3.087
	c0.245,1.126,0.126,1.967-0.361,2.572C12.526,10.987,11.958,11.246,11.306,11.246L11.306,11.246z M10.267,6.356
	c-0.125,0-0.22,0.04-0.3,0.125C9.896,6.555,9.736,6.788,9.766,7.35c0.101,1.885,1.2,2.34,1.247,2.358
	c0.063,0.019,0.187,0.037,0.293,0.037c0.294,0,0.399-0.129,0.434-0.172c0.226-0.28,0.158-0.868,0.062-1.311
	C11.519,6.962,10.718,6.356,10.267,6.356L10.267,6.356z"/>
<path fill="#FFFFFF" d="M5.669,24.922c-1.189,0-2.299-0.795-2.896-2.075c-0.228-0.488-0.362-1.012-0.39-1.513
	c-0.047-0.877,0.272-1.408,0.548-1.699c0.55-0.584,1.44-0.738,2.377-0.371c0.78,0.308,1.507,0.972,1.927,1.49
	c0.25,0.309,1.044,1.407,0.755,2.577c-0.151,0.609-0.568,1.087-1.173,1.348C6.442,24.84,6.056,24.922,5.669,24.922L5.669,24.922z
	 M4.313,20.561c-0.193,0-0.267,0.078-0.291,0.104c-0.062,0.065-0.16,0.227-0.141,0.59c0.017,0.311,0.104,0.643,0.251,0.958
	c0.454,0.973,1.293,1.434,2.092,1.089c0.173-0.074,0.272-0.18,0.31-0.331c0.104-0.423-0.258-1.017-0.465-1.271
	c-0.309-0.382-0.834-0.851-1.311-1.038C4.594,20.596,4.439,20.561,4.313,20.561L4.313,20.561z"/>
<path fill="#FFFFFF" d="M32.197,14.943c-0.3,0-0.589-0.056-0.857-0.166c-0.86-0.351-1.433-1.22-1.528-2.326
	c-0.036-0.446-0.06-0.963,0.032-1.455c0.153-0.825,0.561-3.018,2.258-3.018c0.21,0,0.42,0.04,0.625,0.119
	c1.395,0.536,1.747,2.396,1.891,3.748c0.179,1.669-0.635,2.876-2.072,3.072C32.436,14.936,32.315,14.943,32.197,14.943
	L32.197,14.943z M32.155,9.497c-0.178,0-0.54,0.175-0.837,1.775c-0.06,0.32-0.04,0.713-0.012,1.056
	c0.046,0.528,0.271,0.927,0.601,1.062c0.125,0.051,0.268,0.071,0.42,0.045c0.627-0.086,0.891-0.566,0.798-1.429
	c-0.214-2.02-0.727-2.426-0.937-2.507C32.178,9.497,32.167,9.497,32.155,9.497L32.155,9.497z"/>
</svg>
